<svg width="44" height="51" viewBox="0 0 44 51" fill="none" xmlns="http://www.w3.org/2000/svg">
<path d="M8.72861 2C8.72861 2 1.08217 6.4818 2.09187 10.6032C2.98532 14.2501 10.2034 15.7651 10.2034 15.7651L11.4325 21.6645M22.7395 21.6645C22.7395 21.6645 18.0692 17.7316 15.6112 17.7316C13.1531 17.7316 9.0831 23.4984 9.46604 29.2844C9.86878 35.3695 12.4891 38.8515 17.3318 42.558M17.3318 42.558C21.7563 45.2618 24.4602 45.7534 27.6556 43.5412C30.8511 41.3289 28.8847 31.2509 28.8847 31.2509M17.3318 42.558C16.3719 45.0538 13.6447 49.9321 13.6447 49.9321M27.6556 2C27.6556 2 24.2144 23.6309 21.0189 28.0554C17.8234 32.4799 21.0189 37.396 25.4434 34.938C29.8679 32.4799 32.1224 24.3683 32.5884 17.7316M33.3092 2.98322C33.3092 2.98322 33.3092 7.46702 32.5884 17.7316M32.5884 17.7316C36.4216 29.4427 44.6162 40.3457 41.1749 49.9321" stroke="#1A1414" stroke-width="3"/>
</svg>
