<svg width="44" height="45" viewBox="0 0 44 45" fill="none" xmlns="http://www.w3.org/2000/svg">
<path d="M7.92083 44.9627V33.6074C7.92083 33.6074 2.01601 24.0689 2.01605 17.2556C2.01609 10.4424 7.92083 3.17485 17.0051 2.26656C26.0894 1.35827 35.7677 6.35453 37.4447 9.98821C39.1218 13.6219 37.4447 17.2556 37.4447 17.2556C37.4447 17.2556 42.4411 23.1604 41.9869 24.0689C41.5326 24.9773 37.4447 24.0689 37.4447 24.0689V33.6074H28.3604V44.9627" stroke="#1A1414" stroke-width="2.72528"/>
<path d="M27.452 24.0678L25.6352 25.9102" stroke="black" stroke-width="2.72528" stroke-linecap="round" stroke-linejoin="round"/>
<path d="M20.9553 27.7012H18.3677" stroke="black" stroke-width="2.72528" stroke-linecap="round" stroke-linejoin="round"/>
<path d="M19.0872 9.5332H20.7678" stroke="black" stroke-width="2.72528" stroke-linecap="round" stroke-linejoin="round"/>
<path d="M28.7529 17.5176V19.2" stroke="black" stroke-width="2.72528" stroke-linecap="round" stroke-linejoin="round"/>
<path d="M14.2798 25.1941L13.0916 24.0059" stroke="black" stroke-width="2.72528" stroke-linecap="round" stroke-linejoin="round"/>
<path d="M11.1003 19.2V17.5176" stroke="black" stroke-width="2.72528" stroke-linecap="round" stroke-linejoin="round"/>
<path d="M13.0916 12.7136L14.2798 11.5254" stroke="black" stroke-width="2.72528" stroke-linecap="round" stroke-linejoin="round"/>
<path d="M19.9266 9.5332V14.0753" stroke="black" stroke-width="2.72528" stroke-linecap="round" stroke-linejoin="round"/>
<path d="M26.1675 12.1191L22.9099 15.4384" stroke="black" stroke-width="2.72528" stroke-linecap="round" stroke-linejoin="round"/>
<path d="M28.7529 18.3593L24.7267 18.6172" stroke="black" stroke-width="2.72528" stroke-linecap="round" stroke-linejoin="round"/>
<path d="M26.1675 24.6002L23.4931 21.9258" stroke="black" stroke-width="2.72528" stroke-linecap="round" stroke-linejoin="round"/>
<path d="M19.9266 27.185V23.4023" stroke="black" stroke-width="2.72528" stroke-linecap="round" stroke-linejoin="round"/>
<path d="M13.6857 24.3053L16.3601 21.6309" stroke="black" stroke-width="2.72528" stroke-linecap="round" stroke-linejoin="round"/>
<path d="M11.1003 18.3594L15.6425 18.6173" stroke="black" stroke-width="2.72528" stroke-linecap="round" stroke-linejoin="round"/>
<path d="M13.8256 12.2578L16.5 14.9322" stroke="black" stroke-width="2.72528" stroke-linecap="round" stroke-linejoin="round"/>
<path d="M23.8183 18.6183C23.8183 20.6252 22.1914 22.252 20.1846 22.252C18.1778 22.252 16.5509 20.6252 16.5509 18.6183C16.5509 16.6115 18.1778 14.9846 20.1846 14.9846C22.1914 14.9846 23.8183 16.6115 23.8183 18.6183Z" stroke="black" stroke-width="1.81686"/>
</svg>
