<svg width="44" height="57" viewBox="0 0 44 57" fill="none" xmlns="http://www.w3.org/2000/svg">
<path d="M39.8936 29.6227C32.521 21.3285 9.62863 22.5134 4.34728 29.6227C-0.934074 36.732 4.34726 54.5051 4.34726 54.5051M39.8936 29.6227C44.6331 34.9546 39.8936 54.5051 39.8936 54.5051H19.8721M39.8936 29.6227C29.9683 40.0605 19.8721 54.5051 19.8721 54.5051M27.0202 43.814C27.0202 43.814 17.4895 39.2321 11.9299 42.2867C7.62114 44.654 6.9673 54.5051 11.9299 54.5051C19.8721 54.5051 19.8721 54.5051 19.8721 54.5051" stroke="#1A1414" stroke-width="3.55463"/>
<path d="M29.1112 9.47901C29.1112 13.6671 25.716 17.0622 21.528 17.0622C17.3399 17.0622 13.9448 13.6671 13.9448 9.47901C13.9448 5.29092 17.3399 1.8958 21.528 1.8958C25.716 1.8958 29.1112 5.29092 29.1112 9.47901Z" stroke="black" stroke-width="3.7916"/>
</svg>
