<svg width="40" height="36" viewBox="0 0 40 36" fill="none" xmlns="http://www.w3.org/2000/svg">
<path d="M35.14 2.89996C31.3 0.319957 26.98 0.559957 23.54 2.37996L20 13H23.32C24.66 13 25.62 14.3 25.24 15.58L21.6 27.72C21.42 28.3 20.56 28.12 20.62 27.52L22 15H18.66C17.34 15 16.38 13.72 16.74 12.46L19.1 4.23996C15.4 0.779956 9.42001 -0.360044 4.54001 3.07996C1.64001 5.13996 1.17469e-05 8.39996 1.17469e-05 11.98C-0.0199883 19.6 7.06001 25.4 17.32 34.58C18.84 35.94 21.16 35.96 22.7 34.6C32.66 25.76 40.44 19.44 39.98 11.36C39.8 7.89996 38 4.83996 35.14 2.89996Z" fill="black"/>
</svg>
