<svg width="45" height="46" viewBox="0 0 45 46" fill="none" xmlns="http://www.w3.org/2000/svg">
<path d="M17.7871 8.791C13.7568 11.7136 11.7785 14.1157 9.683 18.6317C7.00346 24.4063 7.9464 34.84 7.9464 34.84M17.7871 8.791C19.5956 8.791 20.6096 8.791 22.4181 8.791M17.7871 8.791C16.1952 8.64628 15.6164 7.4886 15.4717 5.89667C15.3664 4.73887 16.0505 3.24885 17.7871 2.42347C18.9449 1.87321 21.2 1.84465 22.4181 2.42347C23.6361 3.00229 24.8783 4.30474 24.7335 5.89667C24.5888 7.4886 24.01 8.64628 22.4181 8.791M22.4181 8.791C26.7132 14.2165 29.3645 19.7895 30.5222 23.2626C31.6799 26.7357 24.7335 29.0512 25.3124 26.1569C25.8913 23.2626 18.9449 16.3162 18.9449 16.3162M1 41.7864C1 41.7864 18.9449 33.1033 22.4181 32.5245C25.8913 31.9457 26.8411 33.4949 29.3645 34.84M29.3645 34.84C30.0427 36.6485 31.1011 39.4709 31.1011 39.4709H34.8637M29.3645 34.84C29.4339 33.0108 31.1011 30.7878 32.8377 30.209C34.5743 29.6301 36.3109 30.7878 36.8897 31.3668C37.4686 31.9457 39.3584 34.5608 38.6263 36.5766C37.9935 38.319 34.8637 39.4709 34.8637 39.4709M30.5222 42.9441C35.2252 43.7333 42.0995 42.3653 42.6784 41.7864C43.2573 41.2074 43.2573 39.4709 40.9418 39.4709C38.6263 39.4709 34.8637 39.4709 34.8637 39.4709M30.5222 42.9441C27.7022 42.4708 23.5758 40.6286 23.5758 40.6286M30.5222 42.9441C30.5222 42.9441 12.8611 45.4075 1 42.9441" stroke="#1A1414" stroke-width="3"/>
</svg>
