<svg width="44" height="54" viewBox="0 0 44 54" fill="none" xmlns="http://www.w3.org/2000/svg">
<path d="M9.77782 1.8335C9.77782 1.8335 5.15108 3.90493 5.15108 6.46017C5.15108 9.01541 9.77782 11.0868 9.77782 11.0868C9.77782 11.0868 1.1618 19.8365 2.06658 26.5091C3.03937 33.6833 15.1757 39.618 15.1757 39.618M17.4891 41.9313L15.1757 39.618M15.1757 39.618L10.5489 53.498M27.5137 1.8335C27.5137 1.8335 17.4891 19.5691 15.1757 20.3402C12.8623 21.1113 14.7733 23.5604 15.9468 24.9669C17.167 26.4292 17.4894 26.5091 20.5736 26.5091C23.6578 26.5091 35.9961 4.14683 35.9961 4.14683M32.1404 13.4002C39.7893 35.0088 44.4781 53.498 40.6228 49.6424" stroke="#1A1414" stroke-width="3"/>
</svg>
