<svg width="44" height="39" viewBox="0 0 44 39" fill="none" xmlns="http://www.w3.org/2000/svg">
<path d="M32.3845 5.57383C26.2456 2.50436 18.0604 1.99274 11.9214 5.0622C5.78251 8.13167 4.75936 12.7359 4.75936 12.7359M4.75936 23.9906C4.75936 23.9906 5.27094 29.7202 10.8983 34.2221C16.5256 38.724 26.7571 37.809 30.8498 35.2452C40.6497 29.1063 39.035 19.3864 39.035 19.3864M30.8498 12.7359L26.7571 16.8285L30.8498 19.3864M12.433 12.7359L16.5256 16.8285L12.433 19.3864M17 28C17 28 15.4007 29 16 29M30.8498 29.5C28.0463 24.8937 17.9628 24.3937 16 29M16 29C11.8046 25.0043 7.58445 21.1557 3.22462 17.34M5.27094 19.898C5.27094 19.898 3.73618 20.9211 2.71305 19.898C1.68994 18.8749 1.68992 16.8286 3.22463 16.317C4.75935 15.8053 6.80569 17.34 5.78254 18.8748M33.8008 11.7997C33.2944 14.838 35.8264 17.2998 38.3583 16.8285C40.8902 16.3571 42.4094 14.3316 41.903 11.7997C41.3966 9.26775 37.3455 3.19111 37.3455 3.19111C37.3455 3.19111 34.3072 8.76136 33.8008 11.7997Z" stroke="#1A1414" stroke-width="3.03831"/>
</svg>
