<svg width="44" height="46" viewBox="0 0 44 46" fill="none" xmlns="http://www.w3.org/2000/svg">
<path d="M12.6354 35.985C4.7831 33.3676 -1.99926 21.3552 4.7831 11.381C13.6824 -1.70648 32.0993 -0.533822 39.3335 11.3811C48.2328 26.0387 32.0045 35.985 32.0045 35.985M15.2529 33.3677C15.2529 33.3677 10.5415 31.7971 13.1589 28.1327C15.7764 24.4683 28.8638 24.7825 30.9576 28.1327C33.0515 31.4828 29.9107 33.3677 29.9107 33.3677M32.0045 15.0454L26.2462 20.2803H32.5281M11.5885 15.0454L16.8233 20.2803H10.5415" stroke="#1A1414" stroke-width="3"/>
<path d="M26.2461 31.7971C23.6287 31.7971 21.0112 32.8441 18.9172 31.7971C16.8232 30.7501 7.20317 42.7466 12.1119 43.8374C16.8234 44.8844 26.0759 40.9071 34.0985 43.3139C39.3334 44.8844 28.8635 31.7971 26.2461 31.7971Z" stroke="#1A1414" stroke-width="3"/>
<path d="M19.4408 36.5079L18.9173 38.6018M25.1992 35.9844L26.7697 38.6018" stroke="#1A1414" stroke-width="3" stroke-linecap="round"/>
</svg>
