<svg width="44" height="46" viewBox="0 0 44 46" fill="none" xmlns="http://www.w3.org/2000/svg">
<path d="M42 13.6364V4.9091L39.0909 2H4.90909L2 4.9091V13.6364M4.18182 7.09092H11.4545C11.4545 7.09092 11.4545 15.0909 11.4545 18.7273C11.4545 22.3637 4.18182 21.6364 4.18182 18.7273C4.18182 15.8182 4.18182 7.09092 4.18182 7.09092Z" stroke="#1A1414" stroke-width="2.5"/>
<path d="M11.4545 7.0918H18.7273M18.7273 7.0918C18.7273 7.0918 18.7273 15.3544 18.7273 20.1827M18.7273 7.0918H25.2727M18.7273 20.1827C13.6364 22.3646 10.7273 20.1827 10.7273 20.1827M18.7273 20.1827C20.9091 21.6373 23.0909 21.6373 25.2727 20.1827M25.2727 7.0918C25.2727 7.0918 25.2727 15.0704 25.2727 20.1827M25.2727 7.0918H32.5454M25.2727 20.1827C28.1818 21.6373 30.0682 21.9327 32.5454 19.4555M32.5454 7.0918C32.5454 7.0918 32.5454 14.6272 32.5454 19.4555M32.5454 7.0918H39.8182C39.8182 7.0918 39.8182 17.5918 39.8182 19.4555C39.8182 21.3191 35.4545 21.6373 32.5454 19.4555" stroke="#1A1414" stroke-width="2.5"/>
<path d="M2 32.9339V41.6612L4.90909 44.5703H39.0909L42 41.6612V32.9339M39.8182 39.4794H32.5455C32.5455 39.4794 32.5455 31.4794 32.5455 27.843C32.5455 24.2066 39.8182 24.9339 39.8182 27.843C39.8182 30.7521 39.8182 39.4794 39.8182 39.4794Z" stroke="#1A1414" stroke-width="2.5"/>
<path d="M32.5454 39.4785H25.2727M25.2727 39.4785C25.2727 39.4785 25.2727 31.2159 25.2727 26.3876M25.2727 39.4785H18.7273M25.2727 26.3876C30.3636 24.2057 33.2727 26.3876 33.2727 26.3876M25.2727 26.3876C23.0909 24.933 20.9091 24.933 18.7273 26.3876M18.7273 39.4785C18.7273 39.4785 18.7273 31.4999 18.7273 26.3876M18.7273 39.4785H11.4545M18.7273 26.3876C15.8182 24.933 13.9318 24.6376 11.4545 27.1148M11.4545 39.4785C11.4545 39.4785 11.4545 31.9432 11.4545 27.1148M11.4545 39.4785H4.18181C4.18181 39.4785 4.18181 28.9785 4.18181 27.1148C4.18181 25.2512 8.54545 24.933 11.4545 27.1148" stroke="#1A1414" stroke-width="2.5"/>
</svg>
