<svg width="18" height="18" viewBox="0 0 18 18" fill="none" xmlns="http://www.w3.org/2000/svg">
<path fill-rule="evenodd" clip-rule="evenodd" d="M11.3854 12.446C8.73512 14.5687 4.85569 14.4016 2.3989 11.9448C-0.237135 9.30881 -0.237135 5.03494 2.3989 2.3989C5.03494 -0.237135 9.30881 -0.237134 11.9448 2.3989C14.4016 4.85569 14.5687 8.73511 12.446 11.3854L17.6017 16.541C17.8946 16.8339 17.8946 17.3088 17.6017 17.6017C17.3088 17.8946 16.8339 17.8946 16.541 17.6017L11.3854 12.446ZM3.45956 10.8842C1.40931 8.83393 1.40931 5.50982 3.45956 3.45956C5.50982 1.40931 8.83393 1.40931 10.8842 3.45956C12.9329 5.50831 12.9344 8.82905 10.8887 10.8797C10.8872 10.8812 10.8857 10.8827 10.8842 10.8842C10.8827 10.8857 10.8812 10.8872 10.8797 10.8887C8.82906 12.9344 5.50831 12.9329 3.45956 10.8842Z" fill="#1A1414" fill-opacity="0.5"/>
</svg>
