<svg width="24" height="24" viewBox="0 0 24 24" fill="none" xmlns="http://www.w3.org/2000/svg">
<path fill-rule="evenodd" clip-rule="evenodd" d="M11.1986 2.58655C11.6969 2.30969 12.3029 2.30969 12.8012 2.58655L20.0012 6.58655C20.525 6.87756 20.8499 7.42968 20.8499 8.02891V15.9698C20.8499 16.569 20.525 17.1211 20.0012 17.4121L12.8012 21.4121C12.3029 21.689 11.6969 21.689 11.1986 21.4121L3.99859 17.4121C3.47477 17.1211 3.1499 16.569 3.1499 15.9698V8.02891C3.1499 7.42968 3.47477 6.87756 3.99859 6.58655L11.1986 2.58655ZM12.0728 3.89778C12.0274 3.87261 11.9724 3.87261 11.9271 3.89778L4.72706 7.89778C4.67944 7.92424 4.6499 7.97443 4.6499 8.02891V15.9698C4.6499 16.0243 4.67944 16.0744 4.72705 16.1009L11.9271 20.1009C11.9724 20.1261 12.0274 20.1261 12.0728 20.1009L19.2728 16.1009C19.3204 16.0744 19.3499 16.0243 19.3499 15.9698V8.02891C19.3499 7.97443 19.3204 7.92424 19.2728 7.89778L12.0728 3.89778Z" fill="#1A1414" fill-opacity="0.5"/>
<path fill-rule="evenodd" clip-rule="evenodd" d="M7.2499 11.9993C7.2499 9.37599 9.37655 7.24934 11.9999 7.24934C14.6233 7.24934 16.7499 9.37599 16.7499 11.9993C16.7499 14.6227 14.6233 16.7493 11.9999 16.7493C9.37655 16.7493 7.2499 14.6227 7.2499 11.9993ZM11.9999 8.74934C10.205 8.74934 8.7499 10.2044 8.7499 11.9993C8.7499 13.7943 10.205 15.2493 11.9999 15.2493C13.7948 15.2493 15.2499 13.7943 15.2499 11.9993C15.2499 10.2044 13.7948 8.74934 11.9999 8.74934Z" fill="#1A1414" fill-opacity="0.5"/>
</svg>
